<?xml version="1.0" encoding="UTF-8"?>
<svg id="Layer_2" data-name="Layer 2" xmlns="http://www.w3.org/2000/svg" viewBox="0 0 338.31 338.5">
  <defs>
    <style>
      .cls-1 {
        fill: #fff;
      }
    </style>
  </defs>
  <g id="Layer_1-2" data-name="Layer 1">
    <g>
      <path class="cls-1" d="M338.31,169.28c-.06,93.5-75.97,169.37-169.3,169.22C75.56,338.35-.2,262.36,0,168.98,.2,75.42,76.15-.29,169.51,0c93.46,.29,168.86,75.9,168.8,169.28Zm-7.4,.2c.15-89.13-72.17-161.79-161.27-162.02C80.35,7.23,7.69,79.52,7.4,168.9c-.29,89.21,72.05,161.88,161.48,162.2,89.12,.32,161.88-72.25,162.04-161.62Z"/>
      <path class="cls-1" d="M169.28,27.71c77.94,.08,141.4,63.63,141.33,141.53-.07,78.11-63.83,141.76-141.76,141.51-77.89-.24-141.33-63.95-141.16-141.75,.17-77.96,63.73-141.37,141.59-141.29Zm70.15,255.71c18.2-11.42,32.63-25.84,43.81-43.89-3.62-2.1-6.83-3.99-10.07-5.83-2.23-1.26-3.58-2.98-2.17-5.49,1.41-2.5,3.56-2.28,5.79-.98,3.33,1.93,6.68,3.82,10.2,5.82,8.36-15.39,13.39-31.53,15.34-48.9-8.79-3.57-17.48-6.96-26.03-10.69-1.8-.78-3.05-2.8-4.56-4.25,1.51-1.44,2.77-3.45,4.56-4.23,8.54-3.74,17.23-7.14,26.01-10.72-2-17.32-7.01-33.44-15.36-48.76-3.5,2-6.76,3.81-9.96,5.71-2.21,1.31-4.42,1.7-5.84-.77-1.47-2.57-.15-4.41,2.3-5.75,3.24-1.76,6.37-3.71,9.76-5.7-11.39-18.15-25.8-32.62-43.88-43.83-1.99,3.44-3.84,6.52-5.59,9.67-1.31,2.35-3.1,3.9-5.74,2.49-2.76-1.47-2.2-3.78-.83-6.08,1.9-3.2,3.71-6.45,5.66-9.86-14.52-7.84-29.68-12.77-45.76-14.98-2.39-.33-3.28,.3-4.09,2.39-3.04,7.77-6.12,15.54-9.48,23.17-.8,1.82-2.57,4.04-4.27,4.43-2.89,.67-3.62-2.38-4.51-4.54-2.32-5.65-4.59-11.31-6.88-16.97-3.64-9-3.66-9.13-13.32-7.36-13.67,2.5-26.63,7.06-39.03,13.88,1.99,3.44,3.84,6.68,5.73,9.89,1.29,2.19,1.67,4.4-.76,5.88-2.59,1.58-4.43,.22-5.77-2.18-1.8-3.24-3.7-6.42-5.7-9.88-18.2,11.37-32.72,25.85-43.95,43.98,3.52,2.04,6.63,3.88,9.78,5.64,2.34,1.3,3.97,3.04,2.38,5.7-1.58,2.62-3.89,2.04-6.18,.68-3.17-1.88-6.41-3.65-9.74-5.54-8.3,15.45-13.36,31.45-15.26,48.64,1.29,.56,2.41,1.07,3.55,1.54,7.96,3.24,15.96,6.37,23.84,9.8,1.33,.58,2.92,2.43,2.91,3.68,0,1.26-1.73,2.65-2.94,3.72-.8,.7-2.01,.94-3.05,1.37-8.07,3.27-16.13,6.53-24.35,9.85,1.96,17.36,6.96,33.48,15.31,48.82,3.48-1.99,6.73-3.8,9.94-5.7,2.18-1.29,4.38-1.75,5.89,.68,1.62,2.61,.18,4.43-2.18,5.77-3.23,1.83-6.43,3.71-9.92,5.73,11.33,18.21,25.84,32.7,43.93,43.97,2.11-3.64,4.02-6.85,5.85-10.1,1.3-2.31,3.17-3.41,5.55-2.03,2.47,1.43,2.13,3.64,.85,5.85-1.91,3.3-3.78,6.63-5.65,9.93,12.97,7.74,35.79,14.87,48.63,15.2,.49-1.16,1.03-2.41,1.54-3.66,3.21-7.84,6.31-15.73,9.7-23.49,.59-1.34,2.39-2.97,3.64-2.98,1.26,0,2.62,1.75,3.75,2.92,.56,.58,.68,1.58,1.01,2.39,3.39,8.29,6.78,16.58,10.24,25.06,17.32-1.95,33.44-6.99,48.86-15.33-2-3.52-3.88-6.87-5.82-10.19-1.3-2.24-1.5-4.41,.96-5.81,2.48-1.41,4.23-.05,5.5,2.16,1.86,3.23,3.75,6.44,5.87,10.07ZM52.96,169.21c-6.42-2.61-11.84-4.8-17.54-7.12v14.24c5.77-2.34,11.12-4.51,17.54-7.12Zm123.4,133.93c-2.4-5.91-4.61-11.33-7.2-17.7-2.62,6.42-4.84,11.86-7.23,17.7h14.43Zm-14.3-267.69c2.38,5.81,4.6,11.24,7.18,17.54,2.56-6.3,4.75-11.7,7.13-17.54h-14.31Zm123.21,133.83c6.47,2.61,11.9,4.8,17.62,7.1v-14.24c-5.77,2.34-11.12,4.51-17.62,7.14Z"/>
      <path class="cls-1" d="M201.16,155.92c9.53,2.03,18.52,3.94,27.5,5.86,5.72,1.22,11.49,2.26,17.13,3.79,1.58,.43,3.6,2.14,3.93,3.59,.55,2.45-1.62,3.5-3.93,3.99-13.77,2.9-27.53,5.85-41.29,8.8-.81,.17-1.6,.47-2.79,.83,1.1,1.73,2,3.18,2.93,4.61,7.05,10.88,14.1,21.76,21.16,32.63,1.34,2.06,2.67,4.13,.41,6.36-2.3,2.26-4.31,.71-6.33-.6-11.6-7.54-23.2-15.07-34.81-22.6-1.23-.8-2.51-1.53-4.06-2.47-.28,.88-.62,1.43-.61,1.96,.18,7.72,.11,15.47,.78,23.15,.26,3,2.41,5.8,3.35,8.81,.47,1.48,.74,3.53,.08,4.78-3.9,7.38-8.04,14.63-12.23,21.85-1.91,3.29-4.7,3.34-6.63,.03-4.27-7.32-8.45-14.69-12.39-22.19-.64-1.21-.17-3.26,.33-4.74,.89-2.64,2.98-5.09,3.19-7.72,.63-7.94,.6-15.93,.8-23.9,.01-.44-.27-.88-.56-1.75-1.37,.83-2.52,1.49-3.63,2.21-11.19,7.25-22.38,14.51-33.57,21.77-.63,.41-1.27,.79-1.89,1.21-2,1.36-4.07,2.2-6.07,.15-1.91-1.95-.89-3.88,.33-5.75,4.15-6.37,8.29-12.75,12.42-19.14,3.92-6.06,7.84-12.13,12-18.57-1.14-.37-1.99-.73-2.88-.92-13.64-2.94-27.27-5.89-40.92-8.77-2.34-.49-4.6-1.11-4.55-3.97,.05-2.84,2.31-3.39,4.65-3.88,13.77-2.88,27.52-5.86,41.28-8.82,.69-.15,1.36-.4,2.47-.74-.87-1.41-1.56-2.54-2.28-3.65-7.25-11.2-14.5-22.39-21.75-33.59-1.29-2-3-4.07-.79-6.36,2.37-2.46,4.54-.67,6.64,.7,11.61,7.52,23.22,15.05,34.83,22.56,1.13,.73,2.3,1.4,3.39,2.07,.39-.37,.73-.55,.72-.71-.34-9.18-.65-18.36-1.13-27.54-.07-1.29-.6-2.92-1.51-3.73-3.05-2.7-2.32-5.22-.53-8.24,3.76-6.32,7.23-12.8,10.9-19.18,2.56-4.45,5.35-4.42,7.92,.07,3.83,6.71,7.55,13.49,11.4,20.18,1.43,2.49,1.54,4.52-.72,6.66-1,.95-1.77,2.57-1.89,3.95-.83,9.25-1.46,18.51-2.16,27.78,.43,.18,.87,.37,1.3,.55,1.23-.65,2.52-1.22,3.69-1.98,11.72-7.58,23.4-15.22,35.15-22.75,1.29-.82,2.99-1.61,4.41-1.47,2.86,.28,3.58,3.38,1.58,6.51-4.56,7.14-9.21,14.23-13.82,21.35-3.52,5.44-7.03,10.88-10.95,16.94Zm-58.42,13.28c-.03,14.62,11.66,26.44,26.25,26.54,14.6,.1,26.46-11.58,26.61-26.18,.15-14.75-11.7-26.71-26.46-26.7-14.66,0-26.37,11.69-26.4,26.35Zm22.45,33.97c0,1.07,0,1.81,0,2.55-.02,10.56,.78,21.23-4,31.19-.25,.53-.04,1.47,.28,2.04,2.36,4.34,4.8,8.63,7.54,13.52,2.22-3.94,4.01-7.46,6.12-10.78,1.58-2.48,2.08-4.57,.61-7.45-1.26-2.47-1.87-5.45-2.08-8.26-.58-7.54-.79-15.1-1.16-22.82h-7.32Zm3.89-117.09c-2.3,4.11-4.04,7.56-6.1,10.81-1.57,2.47-2,4.53-.65,7.45,1.37,2.97,1.99,6.43,2.26,9.73,.57,7.02,.7,14.07,1.02,21.16h7.26c0-3.15-.03-6.11,0-9.07,.1-8.35,.1-16.71,3.99-24.45,.26-.52,.11-1.46-.19-2.02-2.36-4.34-4.8-8.63-7.59-13.61Zm-40.94,123.79c.2,.18,.4,.35,.6,.53,6.83-4.44,13.65-8.89,20.13-13.1-2.65-2.73-4.99-5.13-7.57-7.77-4.3,6.65-8.73,13.5-13.16,20.35Zm81.44,.32c.21-.15,.42-.3,.63-.45-4.41-6.81-8.81-13.62-13.11-20.27-2.68,2.63-5.11,5.02-7.75,7.62,6.71,4.35,13.47,8.72,20.23,13.1Zm-80.99-81.99c-.18,.18-.36,.36-.54,.54,4.42,6.8,8.84,13.61,12.97,19.97,2.58-2.65,4.94-5.08,7.4-7.6-6.35-4.13-13.09-8.52-19.83-12.91Zm-16.62,40.59c-.03,.32-.05,.63-.08,.95,7.75,1.64,15.49,3.27,23.43,4.95v-10.83c-7.92,1.67-15.63,3.3-23.35,4.93Zm91.08-4.95v10.9c7.97-1.72,15.66-3.38,23.35-5.05-.03-.3-.07-.6-.1-.9-7.7-1.64-15.41-3.28-23.25-4.95Zm-5.91-15.13c4.14-6.39,8.39-12.95,12.65-19.52-.24-.22-.49-.45-.73-.67-3.3,2.13-6.6,4.25-9.89,6.38-3.3,2.14-6.59,4.29-9.68,6.31,2.6,2.55,4.98,4.88,7.65,7.5Z"/>
      <path class="cls-1" d="M150.92,169.28c0-10.23,8.02-18.24,18.25-18.24,10.19,0,18.3,8.09,18.29,18.24,0,10.09-8.22,18.3-18.31,18.31-10.13,0-18.23-8.13-18.23-18.31Zm18.41,10.82c5.97-.1,10.95-5.25,10.77-11.13-.18-5.95-5.38-10.86-11.26-10.65-5.89,.22-10.53,5.05-10.5,10.96,.03,6.05,4.99,10.93,10.99,10.82Z"/>
    </g>
  </g>
</svg>