<svg version="1.2" xmlns="http://www.w3.org/2000/svg" viewBox="0 0 174 190" width="174" height="190"><defs><clipPath clipPathUnits="userSpaceOnUse" id="cp1"><path d="m-649-358h1684v1191h-1684z"/></clipPath></defs><style>.a{fill:#003153}</style><g clip-path="url(#cp1)"><path fill-rule="evenodd" class="a" d="m137.8 167.9c0 4 0 7.4 0 10.9 0 2.6 0 5.2 0 7.8-0.1 2-1 2.8-2.9 2.9q-0.6 0-1.2 0c-33.4 0-66.9 0-100.3 0-1.8 0-3.2-0.5-4.4-1.8q-13.5-13.6-27.2-27.2c-1.1-1.1-1.6-2.3-1.6-3.9q0-76.3 0-152.5c0-3.2 0.7-3.9 3.9-3.9q64.9-0.1 129.9 0c3.2 0 3.8 0.6 3.8 3.9 0 31.4 0 62.8 0.1 94.2 0 1.6 0.4 3.3 1 4.7 5.3 12.2 5.3 24.3-0.2 36.4-0.7 1.5-0.6 2.3 0.7 3.3 1.4 1 2.5 1.8 4.5 1.3 1.3-0.3 3.3 0.2 4.5 1.1 7.6 5.8 15 11.8 22.4 17.7 2.6 2.1 3 5.4 1 8q-4 5.2-8.3 10.2c-2.2 2.5-5.6 2.8-8.3 0.6-5.1-3.9-10.1-8-15.2-12-0.6-0.4-1.2-0.9-2.2-1.7zm-72.8-115.5c0 4 0.9 7.6 3.9 10.4 1.6 1.6 3.4 2.9 5.3 4.3q7.8 5.6 15.7 11.1c0.5 0.3 1.4 0.4 2.1 0.3 11.3-1.8 21.9 0.2 31.4 6.6 3.2 2.2 6.1 4.9 9.1 7.4v-87.1h-126.9v149.8h2.3q11.5 0 23.1 0.1c2.6 0 3.4 0.8 3.4 3.3q0 11.7 0 23.4v2.2h98.1c0-0.3 0.1-0.5 0.1-0.6q0.1-9.5 0-18.9c0-0.6-0.4-1.1-0.5-1.6-0.4-1.4-0.8-2.8-1.2-4.2-0.2-0.8-0.4-1.6-0.9-2.1-0.8-0.9-1.8-1.6-2.8-2.4-0.3 0.2-0.5 0.3-0.7 0.5-20.8 16.5-51.8 10.6-64.9-13.1-0.3-0.6-1.3-1.1-1.9-1.1-3.5-0.1-7 0-10.5 0q-7.5 0-15 0c-1.6 0-2.9-0.3-3.3-2.1-1.4-5.9 1.2-11.8 6.4-14.9 0.5-0.4 1.1-1.4 1.1-2.1 0.2-4.5 2.1-8.1 5.8-10.7 0.6-0.4 1.2-1.4 1.1-2.1-1-5.4-1.9-10.8-3.3-16.1-2.4-9-5.6-17.7-6.6-27-1.5-13.4 2.2-24.8 13-33.4 0.4-0.3 0.9-0.7 1.4-1.2-1.3-1.7-2.4-3.4-3.6-5-0.3-0.4-0.6-0.8-1-1.1-11.5 6.2-19.6 21.1-16.7 35.3 1.1 5.6 3.3 11.1 5.4 16.4 2.6 6.9 5.4 13.6 6.6 20.9 0.3 2.4-0.3 3.7-2 4-1.6 0.3-2.5-0.7-3.1-3.1-1.6-5.6-3.2-11.2-5.1-16.7-1.5-4.3-3.5-8.5-5-12.8-7.6-20.9 2.8-40.6 18.2-49.1 2.6-1.5 3.2-1.4 5 0.9 2 2.5 3.8 5 5.7 7.5 0.5-0.4 1-0.7 1.2-0.8-0.2-1.1-0.8-2.1-0.7-3 0.5-2.9 1-5.8 1.9-8.7 0.9-3 2.9-3.5 5.2-1.2 2 2.1 3.8 4.4 5.3 6.9 1 1.7 2.2 2.8 3.9 3.7 5 2.6 10 5.3 14.8 8.2 2.8 1.6 5.1 3.9 6.2 7 2.6 7.5 7.2 13.7 12.6 19.3 1.8 1.8 2 3.4 0.7 5.6-2 3.2-4.9 5.4-8.6 6.6-1.8 0.5-3.3 0.2-4.4-1.2-3.3-4.4-7.9-6.5-13-7.9-6.1-1.6-11.1-4.7-14.3-10.4zm-7 56.8c4.3-13.6 13.1-23.2 26.6-28.7-1.2-0.9-2.2-1.7-3.2-2.4-4.3-2.9-8.7-5.9-13-8.8-7.8-5.4-9.2-13.3-8.9-21.8 0.1-2 1.6-3.4 3.4-3.8 2-0.3 3.9 0.4 4.9 2.1 0.3 0.7 0.6 1.5 0.9 2.2 1.8 4.1 4.6 7.1 8.9 8.7q3.2 1.3 6.4 2.2c4.1 1.2 7.6 3.4 10.4 6.6 0.7 0.7 1.4 1.4 2 2.1 1.5-1.7 2.8-3.1 4.2-4.5-0.4-0.5-0.7-0.8-1-1.1-4.7-5.4-9.2-11-11.7-17.8-1-3.1-2.8-5.4-5.6-6.9-5.1-2.9-10.3-5.5-15.3-8.4-1.4-0.8-2.6-2.1-3.5-3.4-1.1-1.5-1.9-3.2-2.8-4.8q-0.4 0.1-0.8 0.2c0.1 2 0.1 4 0.3 6 0.3 2.5-0.4 4.3-2.7 5.5-1.1 0.6-2.2 1.3-3.3 2.1-7.9 5.4-13 12.5-13.8 22.3-0.6 6.8 0.7 13.3 2.4 19.8 2.3 8.7 4.7 17.4 6.9 26.1 0.6 2.1 0.7 4.3 1 6.5zm80.1 39.3c-0.1-0.2-0.2-0.4-0.3-0.4q-1.8-1.6-3.7-3.1c-2.7-2.3-2.7-2.6-1.1-5.7 6.9-13.7 6.5-27.2-2.2-39.8-8.8-12.7-21.3-18-36.7-16-15.3 2-27.5 13.2-31.4 28.3-3.8 14.8 1.7 30.4 14 39.6 14.3 10.8 33.9 10.2 47.6-1.5 2.4-2 3.1-2 5.5 0 1.4 1.1 2.8 2.3 4.3 3.5 1.5-1.7 2.8-3.3 4-4.9zm30 18.4c-0.4-0.2-0.9-0.4-1.3-0.8q-10.5-8.2-20.9-16.5c-0.9-0.7-1.4-0.7-2.2 0.2q-3.4 4.4-7 8.6c-0.9 1-0.6 1.6 0.4 2.3q10.4 8.3 20.8 16.6c0.9 0.7 1.5 0.7 2.3-0.2 2.3-2.9 4.6-5.7 6.9-8.6 0.3-0.4 0.5-0.8 1-1.6zm-158.2-6.4c6.4 6.4 12.9 12.9 19.3 19.2v-19.2zm26.1-25.2h22.7c-0.7-2.6-1.3-5.1-1.9-7.7-5.1 0-10.1-0.2-15.1 0.1-3.6 0.2-6 3.7-5.7 7.6zm7.9-13c3.8 0 7.7 0.1 11.6 0 0.3 0 0.8-0.6 0.9-0.9 0.2-2.3 0.2-4.6 0.3-7-2.3 0-4.5-0.2-6.6 0-4.1 0.3-6.9 3.9-6.2 7.9zm25-1.2c-0.1-16.9 13.6-30.6 30.5-30.6 17-0.1 30.7 13.6 30.7 30.6 0 16.8-13.7 30.5-30.6 30.6-16.9 0-30.6-13.7-30.6-30.6zm14.7 19.6c7.4 6.5 20 8.3 30.1 1.6 9.9-6.7 13.9-19.4 9.5-30.6-4-10.3-15.4-17.5-25-16-1.1 2.4-2.2 4.6-3.2 6.8q-1.3 2.7-2.6 5.4c-0.6 1.4-0.5 2.2 1 3 2.8 1.4 5.1 3.8 5.5 6.9 0.4 3.7 1.8 6.1 4.8 8.4 3.5 2.7 3.7 7 3.5 11.2-0.1 2.3-0.8 3.2-3.1 3.3-3.1 0-6.1 0-9.2 0-3.6 0-7.2 0-11.3 0zm18.4-5.3c0.1-4.7-2.8-7.8-7.2-7.9-6.2 0-12.5 0-18.7 0-0.3 0-0.7 0.1-1.4 0.2 1.1 2.3 1.9 4.5 3.1 6.5 0.3 0.6 1.4 1.2 2.1 1.2 4 0.1 8 0 12.1 0zm-7.8-13.2c0.3-4.1-2.2-7.6-6-7.8-4.4-0.3-8.8-0.1-13.5-0.1-0.3 2.7-0.5 5.2-0.8 7.9zm-2-25.6c-6.9 2.4-11.8 6.4-15.2 12.6h6.3c3.2 0 3.1 0 4.1-2.9q0.6-1.7 1.4-3.2c1-2 2.1-4 3.4-6.5z"/></g></svg>