<svg version="1.2" xmlns="http://www.w3.org/2000/svg" viewBox="0 0 192 180" width="192" height="180"><defs><clipPath clipPathUnits="userSpaceOnUse" id="cp1"><path d="m-709-757h1684v1191h-1684z"/></clipPath></defs><style>.a{fill:#fff}</style><g clip-path="url(#cp1)"><path class="a" d="m191.8 55.8c0.2-1 0.1-2.5-0.5-3.1-0.5-0.6-2.1-0.6-3.1-0.3q-16.5 5.2-33 10.6c-12.2 4.1-24.5 7.9-35.5 14.9 0 0-0.2-0.1-0.1-0.1 0-8.6 0-17.2 0.1-25.8 0-0.5 0.8-1.2 1.4-1.5 2.9-1.2 4.8-3.2 5.6-6.3q1.7-6.4 0.1-12.9c-0.6-2.4-1.9-4.4-4.2-5.4-1.5-0.7-1.8-1.7-1.9-3.1-0.4-5.2-2-10-5.4-14-9.7-11.6-27.8-11.3-37.8 0.6-3.7 4.5-5.9 9.6-6.7 15.3-0.2 0.9-0.7 2.2-1.4 2.6-2.5 1.5-4.2 3.6-4.5 6.4-0.3 3.6-0.6 7.3-0.3 10.9 0.5 5 3 7.2 8 8 0.3 0 0.5 0.1 1 0.2v25.4c-2.6-1.4-5.1-2.9-7.8-4.2-10.5-5.2-21.7-8.7-32.8-12.3q-14.6-4.8-29.1-9.6c-2.6-0.8-3.9 0.3-3.4 2.9q0.1 0.7 0.3 1.3c2.6 10.2 8.3 18.4 16.4 25 0.7 0.6 1.5 1.2 2.4 1.9-0.5 0.2-0.6 0.2-0.7 0.3q-3 0.2-6 0.4c-3.1 0.2-3.9 1.6-2.4 4.2 3.5 6 8.1 10.9 13.8 14.8 0.5 0.4 1 0.8 1.8 1.3-1.8 0.6-3.1 1.1-4.5 1.6-3.3 1.1-3.7 1.9-1.9 5.1 3.9 6.6 9.2 12 15.5 16.4 8 5.6 16.8 8.2 26.5 6.8 4.3-0.7 8.4-2.2 12.7-3.3 0.1 0.4 0.1 1.2 0.2 1.9 0.2 3.9 0.3 7.7 0.6 11.6 0.7 7.9 2.8 15.2 8.1 21.5 2.4 2.7 4.3 5.8 6.3 8.9 4.1 6.5 10.6 6.4 14.4-0.1q4.5-7.7 9.1-15.2c2.2-3.5 3.8-7.1 4.2-11.2 0.4-4.6 0.6-9.2 1-13.9 0-0.8 0.1-1.6 0.2-2.6 6.5 3.3 13 4 19.7 2.8 15.4-2.7 27-10.9 34.7-24.4 1.2-2 0.7-3.2-1.5-4-1.6-0.6-3.3-1.1-5.4-1.8 6.7-4.3 11.8-9.4 15.6-15.8 1.7-3 1-4.4-2.5-4.5-2-0.2-4.1-0.4-6.6-0.6 0.8-0.6 1.1-0.8 1.5-1.1 8.9-6.9 15-15.6 17.8-26.5zm-104-48.9c7.3-3.6 14.6-3.1 21.2 1.9 5.1 3.8 7 9.1 7.4 15.3-13.7 0.6-27.4 1.3-41.4 2 1.4-8.7 5.1-15.5 12.8-19.2zm-15.2 119.2c-13 6.4-25.3 4.9-36.8-3.8-4.6-3.4-8.5-7.5-11.7-12.7 2.5-0.9 4.8-1.7 7.2-2.4 0.5-0.2 1.2 0.2 1.8 0.4 7.8 3 15.8 3.8 24 2.5 2.9-0.5 4-1.3 3.7-2.9-0.3-1.6-1.4-1.9-4.4-1.5q-23.8 3.4-39-15.2c-0.5-0.6-0.9-1.4-1.7-2.5 4.9 0.2 9.3-1.6 14 0.6 5.2 2.5 11 3.4 16.8 3.5 1.7 0 3.2-0.3 3.2-2.3-0.1-1.8-1.5-2-3.1-2.1-17.3-0.3-33.9-12-40.1-28.1-0.2-0.5-0.4-1.1-0.7-2 7.1 2.3 13.8 4.5 20.5 6.6 12.1 3.8 24.3 7.4 35.8 13 3.6 1.7 7 3.8 10.4 5.9 0.8 0.4 1.4 1.7 1.4 2.5 0.2 12.5 0.3 25 0.5 37.6 0.1 1.5-0.4 2.3-1.8 2.9zm5.6-54.5c-0.1-6.2 0-12.4 0-18.9h9.5c-0.7 30.1-1.4 60.4-2.1 91.3-2.2-1.3-4.1-2.2-5.8-3.3-0.5-0.4-0.8-1.5-0.8-2.2q-0.4-33.4-0.8-66.9zm27.5 91.6c-0.2 0.4-0.9 0.6-1.3 0.6q-8 0-16-0.2c-0.5 0-1.2-0.3-1.5-0.7-3.8-5-7-10.4-7.7-17.2 10.9 5.7 22 6.7 33.8 2.5-1.5 5.8-4.4 10.4-7.3 15zm-15.7-17.6c0.7-31.4 1.4-62.2 2.1-93.4h11.6v94.3c-4.9-0.3-9.2-0.6-13.7-0.9zm25.1-91.3c-0.4 29-0.9 57.9-1.3 86.9 0 1.5-0.4 2.2-1.8 2.6-1.2 0.4-2.4 0.8-3.7 1.3v-93.3h6.8q0.1 1.3 0 2.5zm-1-6c-9.6 0.9-32.6 0.4-39.7 0.5-8.4 0.2-6.9-9.3-6.9-9.3 0-6 1.1-9 8.6-9.9 7.5-0.9 37-3.1 41.9-1.4 4.9 1.7 6.4 4.3 6.4 8.4 0 4.1-0.7 10.8-10.3 11.7zm31.4 43.8c6.2 0 12.1-1.4 17.9-3.7 1.7-0.6 3.6-0.8 5.4-0.8 2.5 0 4.9 0.4 7.7 0.6-3.1 4.8-6.9 8.5-11.4 11.5q-13.8 8.8-29.9 5.9c-1-0.2-2.1-0.1-2.9 0.2-0.5 0.3-1 1.5-0.8 2 0.4 0.8 1.2 1.7 2 1.8 6.6 1.5 13.2 1.4 19.8-0.1 1-0.3 2.2-0.4 3-0.9 4.2-2.5 7.8-0.3 12 1.2-2 2.5-3.6 4.8-5.6 6.9-7.8 8.1-17.1 12.9-28.3 13.8-5.1 0.4-9.9-0.3-14.4-3-1.1-0.7-1.6-1.5-1.5-2.8 0.2-13 0.3-26 0.6-39 0-0.9 0.6-2 1.3-2.6 5.2-4.6 11.5-7.2 17.9-9.4 13.8-4.8 27.8-9.2 41.7-13.8 2.1-0.7 4.2-1.4 6.7-2.2-2.4 6.9-6.1 12.4-11 17.1-8.5 8.2-18.5 12.8-30.4 12.9-1.6 0.1-2.8 0.5-2.7 2.3 0.1 1.8 1.3 2.1 2.9 2.1z"/></g></svg>