<svg version="1.2" xmlns="http://www.w3.org/2000/svg" viewBox="0 0 191 192" width="191" height="192"><defs><clipPath clipPathUnits="userSpaceOnUse" id="cp1"><path d="m-927-357h1684v1191h-1684z"/></clipPath></defs><style>.a{fill:#fff}</style><g clip-path="url(#cp1)"><path fill-rule="evenodd" class="a" d="m190.6 101.8c-0.4 3.5-0.9 7-1.4 10.4-6.1 37.3-36.3 68.9-73.3 76.6-30 6.3-57.2-0.1-81-19.5-18.8-15.3-30.2-35.3-33.8-59.5-6-41.6 15.1-81.4 52.8-99.8q16-7.8 33.9-9.1c0.5-0.1 1-0.2 1.6-0.3h11.9c0.5 0.1 1.1 0.2 1.6 0.3 7.3 0.5 14.4 1.7 21.3 4.2 35.7 12.6 57.5 37.3 65 74.5 0.7 3.4 1 6.8 1.4 10.3zm-95.2-96.8c-50 0-90.8 40.7-90.9 90.5-0.1 50.2 40.6 91.1 90.7 91.1 50.1 0.1 90.9-40.7 91-90.8 0-50-40.8-90.8-90.8-90.8zm-82.3 90.8c0-45.3 36.9-82.1 82.1-82.2 45.3-0.1 82.4 36.9 82.4 82.2 0 45.2-37.2 82.4-82.5 82.2-45.2-0.1-82-37-82-82.2zm49.9 70.7c0.1-0.3 0.2-0.5 0.3-0.6 2.2-9.6 8-15.9 17.3-19 0.5-0.2 1-1 1.3-1.6 0.9-1.8 1.7-3.6 2.5-5.4 0.3-0.6 0.7-1.2 0.7-1.8 0-1.8-0.2-3.6-0.3-5.4-1-16-2-31.9-2.9-47.9-0.1-1 0.3-2.1 0.9-2.9 3.3-5.1 6.7-10.1 10.1-15.1 1.7-2.4 3.2-2.4 4.9 0.1 3.1 4.5 6.1 9.1 9.3 13.6 1.3 1.8 1.8 3.6 1.6 5.7-1 16.9-2 33.8-3.1 50.7-0.1 1.5 0.2 2.7 1.2 3.9 0.9 1.3 1.5 2.8 1.9 4.4 0.3 1.1 0.8 1.6 1.9 1.9 4.1 1.2 7.6 3.6 10.5 6.7 3.4 3.6 5.4 7.9 6.4 12.8 7.9-3.7 14.9-8.4 21.2-14.3-5.5-5.5-10.8-10.8-16.2-16.1-1.8-1.8-1.8-2.6-0.1-4.3 21.9-22.4 18.1-56.8-3.6-75.6-11.8-10.1-25.6-13.8-40.9-11.7-24.8 3.5-43.5 24.5-44.3 49.5-0.4 14.7 4.5 27.2 14.7 37.8 1.6 1.7 1.6 2.5-0.1 4.2q-4 4-8 8c-2.7 2.7-5.4 5.4-8.2 8.2 6.3 5.9 13.2 10.6 21 14.2zm-9.1-108.6c-5.2-5.1-10.2-10.1-15.4-15.2-13.1 14.3-20.1 31.2-20.9 50.8h21.5c0.8-13.7 5.8-25.6 14.8-35.6zm39.1-39.8c-19.7 0.8-36.6 7.9-50.7 20.9 5.1 5.2 10 10.3 15.1 15.4 4.9-4.4 10.4-8 16.5-10.5 6.1-2.6 12.5-3.9 19.1-4.3zm59.1 24.7c-5.1 5.1-10.1 10.1-15.2 15.2 4.3 4.8 7.8 10.3 10.4 16.4 2.5 6.1 3.8 12.5 4.3 19.1h21.5c-0.9-19.7-7.9-36.6-21-50.7zm-3.6-3.6c-14.3-13.2-31.2-20.3-50.9-21.1v21.6c13.8 0.7 25.7 5.7 35.8 14.7 5.1-5.1 10-10.1 15.1-15.2zm3 58.9c-0.7 13.8-5.7 25.7-14.8 35.7 5.1 5.2 10.1 10.2 15.1 15.2 10.9-8.7 23.3-38.5 21-50.9zm-112.8 50.9c5.1-5 10.1-10 15.3-15-9.3-10.2-14.2-22.2-14.9-35.8h-21.5c0.9 19.7 7.9 36.6 21.1 50.8zm84.4 19.5c-1.6-11-9.6-18-20.5-18.1-4.9-0.1-9.7 0-14.5 0-4.1 0-7.9 0.9-11.3 3.1-5.4 3.5-8.5 8.5-9.4 14.9 18.6 6.9 37.1 6.9 55.7 0.1zm-21.9-32.3q0.3-5.3 0.6-10.7c0.8-13.2 1.6-26.4 2.4-39.7 0-0.7-0.2-1.6-0.6-2.2-2.5-3.9-5.1-7.6-7.7-11.4-0.2-0.3-0.5-0.5-0.8-0.8-2.5 3.8-4.8 7.4-7.3 10.9-1.1 1.5-1.5 3-1.4 4.9 0.8 12.2 1.5 24.5 2.3 36.7 0.2 4.1 0.5 8.3 0.8 12.3zm-14.8 9.6h17.8c-0.6-2.8-2.7-5-5.6-5.2-2.5-0.1-5.1 0-7.6 0.4-2.5 0.4-4.1 2-4.6 4.8z"/></g></svg>