<svg version="1.2" xmlns="http://www.w3.org/2000/svg" viewBox="0 0 185 213" width="185" height="213"><defs><clipPath clipPathUnits="userSpaceOnUse" id="cp1"><path d="m-975-631h1684v1191h-1684z"/></clipPath></defs><style>.a{fill:#fff}</style><g clip-path="url(#cp1)"><path fill-rule="evenodd" class="a" d="m1 18c0-1.2 0.9-2.2 2.2-2.2q18.5 0 37 0c0.4 0 0.8-0.1 1.1-0.1q0.3-0.1 0.5-0.1c1.1-0.1 2-1.1 2-2.2v-10.6c0-1.3 0.9-2.3 2.2-2.3h2.1c1.2 0 2.2 1 2.2 2.3v10.7c0 1.2 1 2.2 2.2 2.2h11c1.3 0 2.3-1 2.3-2.2v-10.7c0-1.2 1-2.2 2.2-2.2h2.2c1.3 0 2.2 1 2.2 2.2v10.7c0 1.2 1 2.2 2.3 2.2h36.7c1.3 0 2.3-1 2.3-2.2v-10.7c0-1.2 0.9-2.2 2.2-2.2h2.2c1.3 0 2.3 1 2.3 2.2v10.7c0 1.2 0.9 2.2 2.2 2.2h11c1.2 0 2.2-1 2.2-2.2v-10.8c0-1.2 1-2.2 2.2-2.2h2.1c1.3 0 2.2 1 2.2 2.2v10.9c0 1.3 1 2.2 2.3 2.2h38.1c1.3 0 2.2 1 2.2 2.3v192.2c0 1.2-0.9 2.2-2.2 2.2h-12q-83.8 0-167.5 0c-1.3 0-2.2-1-2.2-2.2zm6.7 6.7v178.8c0 1.2 1 2.2 2.2 2.2h166.2c1.3 0 2.2-1 2.2-2.2v-178.8c0-1.2-0.9-2.2-2.2-2.2h-10.9c-1.2 0-2.2 1-2.2 2.2v163.3c0 1.2-1 2.2-2.2 2.2h-135.6c-1.2 0-2.2-1-2.2-2.2v-163.3c0-1.2-1-2.2-2.2-2.2h-10.9c-1.2 0-2.2 1-2.2 2.2zm22.1 0v156.6c0 1.3 1 2.3 2.2 2.3h122c1.2 0 2.2-1 2.2-2.3v-156.6c0-1.2-1-2.2-2.2-2.2h-9.5c-1.3 0-2.3 1-2.3 2.2v10.7c0 1.3-0.9 2.3-2.2 2.3h-2.1c-1.2 0-2.2-1-2.2-2.3v-10.7c0-1.2-1-2.2-2.2-2.2h-11.1c-1.2 0-2.2 1-2.2 2.2v10.8c0 1.2-1 2.2-2.2 2.2h-2.2c-1.2 0-2.2-1-2.2-2.2v-10.8c0-1.2-1-2.2-2.2-2.2h-36.9c-1.2 0-2.2 1-2.2 2.2v10.8c0 1.2-1 2.2-2.2 2.2h-2.1c-1.2 0-2.2-1-2.2-2.2v-10.8c0-1.2-1-2.2-2.2-2.2h-11.2c-1.2 0-2.2 1-2.2 2.2v10.8c0 1.2-1 2.2-2.2 2.2h-2.1c-1.2 0-2.2-1-2.2-2.2v-10.8c0-1.2-1-2.2-2.2-2.2h-9.5c-1.2 0-2.2 1-2.2 2.2zm96 77.5c-4.8 0.1-8.1 3.8-8.1 9q0 14 0 28v10.4h-49.3v-11q0-13.9-0.1-27.7c0-3-1.3-5.6-3.6-7.2-2.1-1.5-4.8-1.9-7.4-1-3.3 1.2-5.4 4.2-5.5 7.9q0 1.9 0 3.9 0 0.2 0 0.4h-6.5q0-1.9 0-3.7c-0.1-4.3-0.1-8.3 0.6-12.2 1.8-10.1 8.2-16.9 18.4-19.5 10-2.6 18.8 0.1 26 8.2q0.3 0.3 0.7 0.7l2 2.3 3.3-3.6c7.1-7.9 18.1-10.6 28-6.9 9.9 3.8 16.4 13 16.5 23.6 0.1 2.9 0.1 5.8 0.1 8.8q0 1 0 2.1h-6.7q0-1.8 0-3.5c0-2.7-0.9-5-2.6-6.7-1.5-1.5-3.6-2.3-5.8-2.3zm-50.8 14.4v4.7h14.7v-2.2q0-2.4 0-4.8c0-3.5 0.1-7 0-10.5-0.1-6.1-3-11.7-8.1-15.2-5-3.5-11.2-4.4-17-2.4-3.5 1.2-6.2 3.1-8.3 5.8l-2.5 3.3 4.1 0.3q0.3 0 0.4 0c0.3 0 0.5 0 0.7 0 9.7 0 16 6.3 16 15.9q0 2.6 0 5.1zm35.9 11.5h-35.8v14.9h35.8zm14.2-32.4q1.5-0.3 3.1-0.6l3.7-1-2.7-2.7c-5.3-5.5-11.8-7.4-18.9-5.4-7.7 2.1-12.5 7.4-13.5 14.9-0.5 4-0.5 8-0.4 12 0 1.6 0 3.3 0 5-0.1 0.4 0 0.8 0.1 1.2q0 0.1 0 0.3l0.2 2h14.4v-2.2q0-1.5-0.1-3c0-2.1 0-4 0.1-6 0.3-6.1 3.1-10.4 8.3-12.8 1.7-0.8 3.7-1.2 5.7-1.7z"/></g></svg>