<svg version="1.2" xmlns="http://www.w3.org/2000/svg" viewBox="0 0 178 141" width="178" height="141"><defs><clipPath clipPathUnits="userSpaceOnUse" id="cp1"><path d="m-516-608h1684v1191h-1684z"/></clipPath></defs><style>.a{fill:#fff;stroke:#003153;stroke-miterlimit:10}</style><g clip-path="url(#cp1)"><path fill-rule="evenodd" class="a" d="m2.4 35.7c0.4-2.2 0.8-4.3 1.4-6.5 7.3-26.5 40.7-35.3 60.3-15.9 0.8 0.7 1.5 1.1 2.6 1.1q22.3-0.1 44.6 0c1.1 0 1.9-0.4 2.8-1.2 10.6-9.9 22.9-13 36.7-8.5 13.8 4.6 21.9 14.6 24.5 28.9 0.3 1.9 0.4 3.8 0.4 5.7q0 41.7 0 83.5c0 0.5 0.1 1 0 1.5-0.2 1.8-1.6 3.1-3.4 3.1-1.8 0-3.2-1.3-3.3-3.2-0.1-0.5 0-1.1 0-1.6q0-30 0-60v-1.9c-15.3 16.8-32.6 19.2-51.9 7.3 0 0.3 0.1 0.8 0.2 1.2q2.2 9.4 4.5 18.8c1.3 5.5-0.7 9.8-5.8 12.4-0.4 0.2-0.8 0.4-1.4 0.7 0.2 0.8 0.4 1.6 0.7 2.4q3 10 6 20.1c1 3.5-0.3 5.2-4 5.2q-28.3 0.1-56.5 0c-3.7 0-5-1.7-4-5.3q3.2-10.4 6.3-20.9c0.1-0.5 0.2-0.9 0.3-1.2-1.6-1.2-3.3-2.2-4.7-3.5-2.5-2.5-3.4-5.5-2.6-9q2.4-9.7 4.7-19.4c0.1-0.5 0.2-1.1 0.3-1.9-0.6 0.4-1 0.7-1.4 1-22.3 15.8-53.5 2.3-57-24.9-0.1-0.4-0.2-0.8-0.3-1.3zm86.6 59.4q10 0 20 0c0.7 0 1.5 0 2.2-0.1 3.2-0.5 4.7-2.6 3.9-5.7q-2.8-11.7-5.6-23.3c-1-3.9-1.7-7.9-3-11.6-1.6-4.2-2.9-8.3-3.2-12.7-0.1-0.5-0.3-1.2-0.7-1.5-7-6.1-14.1-7.7-22.2-3.3-1.4 0.7-2.7 1.8-4.1 2.6-1.1 0.7-1.5 1.6-1.6 3 0 1.6-0.3 3.3-0.8 4.9-0.9 3.1-2.2 6-3 9-2.7 11-5.2 22.1-8 33.2-0.7 2.7 0.7 4.1 2.5 4.9 1 0.5 2.2 0.6 3.3 0.6 6.8 0 13.6 0 20.3 0zm-20.9-55.9c0-16.4-13.1-29.6-29.5-29.6-16.2 0-29.4 13.3-29.4 29.4-0.1 16.4 13.2 29.6 29.5 29.6 16.2 0 29.4-13.2 29.4-29.4zm41.9-0.1c-0.1 16.2 13 29.4 29.2 29.5 16.4 0.1 29.7-13 29.8-29.2 0.1-16.3-13.1-29.7-29.3-29.8-16.5 0-29.6 13.1-29.7 29.5zm3.8 83c-2-6.6-3.9-12.9-5.9-19.3-0.1-0.4-1-0.9-1.6-0.9-11.5 0-23 0-34.5 0-1.1 0-1.5 0.3-1.8 1.4-0.8 2.9-1.7 5.8-2.6 8.7-1 3.3-2 6.7-3 10h34.5c0-2.5 0-5 0-7.5 0-2.6 1.3-4.2 3.3-4.2 2.1 0 3.4 1.5 3.5 4.1 0 2.6 0 5.1 0 7.7zm-43.2-100.8c1.4 3.7 2.7 7.4 4.1 11.1 9.6-6.2 19.3-6.5 28.8-0.1 1.4-3.8 2.7-7.4 4-11zm105.2 113.6c0 1.9-1.6 3.5-3.5 3.4-1.9 0-3.4-1.5-3.4-3.5 0-1.9 1.5-3.4 3.5-3.4 1.9 0 3.4 1.5 3.4 3.5zm-155.3-94c-0.2-7.3 5.2-12.9 11.9-12.3 6.2 0.6 10.1 6.9 9.7 12.3-0.2 1.6-1.7 2.8-3.4 2.8-1.6 0-3-1.2-3.3-2.9-0.2-1-0.3-2.1-0.7-3-0.6-1.4-1.6-2.4-3.3-2.4-1.8-0.1-3 0.9-3.5 2.5-0.4 1.3-0.5 2.8-0.4 4.3 0.3 3.5 1.7 6.5 4.3 8.9 4.1 3.7 9.8 3.7 13.9 0 3.4-3.3 4.7-7.4 4.4-12-0.3-5.9-2.4-11.1-6.5-15.4-1.6-1.7-1.7-3.7-0.2-5.1 1.4-1.4 3.5-1.2 5.1 0.4 7.8 7.7 10.7 21.3 6.4 30.6-3.7 8.2-11.9 12.7-20.1 10.5-7.6-2-11.8-7.4-13.7-14.9-0.3-1.4-0.4-2.9-0.6-4.3zm137.1-3.1c0.1 6.8-1.1 11.2-3.8 15.1-7.1 10.1-21 10.4-28.3 0.4-3.3-4.5-4.8-9.6-4-15.2 0.9-6 6-10 11.7-9.5 5.2 0.5 9.8 5.9 9.7 11.5-0.1 2.1-1.4 3.6-3.3 3.6-1.8 0.1-3.2-1.2-3.5-3.2-0.2-1.1-0.4-2.3-0.9-3.2-1.5-2.7-4.8-2.7-6.3 0-0.5 0.9-0.8 2.1-0.8 3.1 0 3.5 1 6.8 3.4 9.5 4.6 5.4 12 5.2 16.3-0.4 3.5-4.5 3.6-9.6 2.4-14.8-0.9-4.2-2.8-7.8-5.8-10.9-1.7-1.7-1.8-3.7-0.3-5.1 1.4-1.5 3.5-1.3 5.2 0.4 5.6 5.8 8.1 12.8 8.3 18.7z"/></g></svg>